<?xml version="1.0" encoding="utf-8"?>
<!-- Generator: Adobe Illustrator 28.3.0, SVG Export Plug-In . SVG Version: 6.00 Build 0)  -->
<svg version="1.1" id="Шар_1" xmlns="http://www.w3.org/2000/svg" xmlns:xlink="http://www.w3.org/1999/xlink" x="0px" y="0px"
	 viewBox="0 0 855.7 697.8" style="enable-background:new 0 0 855.7 697.8;" xml:space="preserve">
<style type="text/css">
	.st0{fill:#050404;}
	.st1{fill:#CC4220;}
	.st2{fill:#FEFEFE;}
</style>
<g>
	<path class="st0" d="M592.8,503.8c-7.2-5.1-13.4-11.3-19.3-17.9c-2.3-4.8-6-8.8-7.5-14c-1.2-4.1-3.6-5.1-7.7-5
		c-44,0.1-88,0.1-132,0.1c-1.7,0-3.3,0.2-5,0.3c-4.9-0.5-9.9-0.5-14.8,0c-16-0.5-31.9-0.4-47.9,0c-27.1-0.4-54.1-0.4-81.2,0
		c-6.1-0.1-12.2-0.1-18.4-0.3c-2.1-0.1-3.3,0.5-4.1,2.6c-3.4,8.7-8.8,16.2-14.6,23.4c-5.4,4.4-10.6,9-16.6,12.7
		c-13.2,7-27.2,9.9-42,9.1c-7.7-1.3-15.1-3.5-22.5-5.8c-8.8-5-17.5-10.2-24.1-18.1c-2.6-3.2-5.3-6.3-7.9-9.5
		c-1.8-4.1-3.7-8.1-5.4-12.2c-1-2.4-3-2.2-5-2.2c-8-0.1-16,0.6-23.7-2.1c-13.8-4.7-23.8-17.1-24.1-31.7c-0.4-17.8-0.6-35.6,0.1-53.4
		c1-26.9,20.3-49,46.5-54.6c6-1.3,6-1.3,3.2-6.7c-2.5-4.9-5.5-9.6-7.3-14.7c-2.8-7.9-8.2-12.4-16.1-14.5c-3.3-0.9-6.6-2.2-9.5-4.3
		c-4.5-3.1-6.4-9.1-4.4-14.1c1.9-4.8,7.1-8,12.4-7.2c2.3,0.3,4.5,1,6.7,1.9c17.7,7,35.4,14.2,53.2,21.2c3.4,1.3,6,3.7,9,5.4
		c0,0-0.1-0.1-0.1-0.1c-0.1,0.9,0,1.8,1.1,2.1l-0.1-0.1c0.4,5,1,10-3.2,13.8c-6.3,5.9-12.9,2-20.4-0.4c2.7,5.3,4.9,9.7,7,14.1
		c0.9,1.8,2.4,1.3,3.9,1.5c9.3,1.3,17.2-2.2,24.8-6.8c21.4-9.8,42.8-19.6,64.3-29.3c27.4-12.4,54-27.1,84.1-32.8
		c33.6-5.2,67.4-2.7,101.1-2.8c44.4-0.1,83.6,14.8,117.7,43.3c1.9,1.6,4,3,5.9,4.5c9.6,9.4,20.2,17.6,30.3,26.5
		c1.1,0.9,2.3,1.1,3.7,1.3c17.1,1.8,34.2,3.7,51.1,6.8c20.3,3.3,40.3,7.9,60.3,12.7c0.6,0.1,1.3,0.1,1.9,0.1
		c9.5,3.6,19.4,5.7,29.1,8.5c18,5.1,36,10.1,48.7,25.2c10.4,13.9,14.2,29.7,13.2,46.9c-0.5,7.8-0.1,15.6-0.1,23.5
		c0,11.3-2.1,14-12.9,16.5c-24-0.1-48.1-0.2-72.1-0.3c-2,0-3.1,0.8-3.9,2.4c-2.2,4.5-4.4,8.9-6.5,13.3c-7.2,9.2-15.1,17.3-25.4,23.1
		c-7.9,4.4-16.6,6.3-25.1,8.8C623.8,516.1,607.7,512.6,592.8,503.8z M330.4,347.5c-0.1,1.7,0.9,2.2,1.6,2.8
		c16.4,14.1,32.9,28.1,49.3,42.2c2.3,2,4.7,2.6,7.7,2.6c39.3-0.1,78.6-0.1,117.8,0c2.3,0,4.7,0.1,6.9,0.5c6,1.1,9.7,5.6,9.7,11.5
		c0,5.7-3.6,10.2-9.3,11.3c-2.3,0.5-4.6,0.6-6.9,0.6c-40.9,0-81.9,0-122.8,0.1c-6.2,0-11.1-1.9-15.8-5.9
		C344,392,319.3,371,294.7,349.8c-2.1-1.8-4.3-2.7-7.2-2.7c-12.3,0.1-24.6,0-37,0.1c-1,0-2.4-0.7-3,0.9c0.4,1.4,1.7,2,2.6,2.9
		c12.5,11,25.5,21.4,37.4,33.1c8.5,8.4,17.5,13.1,29.6,11.1c1.7-0.3,3.6,0.3,5.4,0.5c3,0.4,5.2,2.1,6.9,4.5c2.7,3.7,3,7.7,1.2,11.8
		c-2.1,4.8-6.2,6.9-11.2,7.1c-5.5,0.2-11-0.2-16.5,0.2c-8,0.6-14.2-2.1-20.3-7.4c-23.8-20.8-47.9-41.3-71.9-61.9
		c-2.1-1.9-4.3-2.7-7.2-2.7c-24.5,0.1-48.9-0.1-73.4,0.1c-22.7,0.1-37.8,15.4-37.9,38c-0.1,12.8,0,25.6,0,38.4
		c0,16.5,3,19.4,19.6,19.4c3.6,0,4.3-1.2,4.6-4.5c2.6-29.3,17.7-50.2,44.3-61.9c43.9-19.3,95.5,12.7,98.7,60.7
		c0.3,4.6,1.7,5.7,6.2,5.7c94.2-0.1,188.4-0.1,282.6-0.1c3.3,0,7.2,1,9.8-0.4c3.1-1.6,0.7-6.1,1.8-9.2c0.1-0.3,0.1-0.7,0.2-1
		c4.4-24.6,17.5-42.9,40-53.8c25.3-12.3,49.9-9.9,72.7,6.2c18.7,13.2,28.9,31.7,30,54.8c0.1,2.6,1.1,3.4,3.6,3.4
		c17.8-0.1,35.6-0.1,53.4,0c2.4,0,3.2-0.8,3.2-3.2c-0.1-5.8-0.2-11.7,0-17.5c0.1-2.7-0.9-3.4-3.5-3.4c-6.3,0.1-12.7,0.2-19,0
		c-6.7-0.2-11.2-3.2-12.7-8.4c-2.5-8.3,2.9-15,12.4-15.6c4.2-0.2,8.4,0.6,13.1-0.6c-5.9-7.1-13.6-9.6-21.3-12.1
		c-65.9-20.9-133.2-33.3-202.4-34.7c-65.9-1.4-131.8-0.2-197.7-0.5C331.5,347.2,331.1,347.3,330.4,347.5z M679.1,442.9
		c-0.1-26.2-21.3-47.5-47.6-47.7c-26.1-0.2-48.1,21.8-48,47.9c0.2,26.1,21.6,47.6,47.7,47.8C657.4,491.1,679.2,469.2,679.1,442.9z
		 M189.1,395.2c-25.7-0.9-48.4,20.7-48.5,47.3c-0.1,25.8,18.8,47.5,47,48.2c25.8,0.6,47.7-19.2,48.5-47.2
		C236.8,417.8,215.7,396.2,189.1,395.2z M538.5,322.7c-3.8-3.2-7.5-6.5-11.3-9.7c-25.8-21.7-55.4-34.7-89.2-37
		c-28.1-1.9-56.2-0.9-84.3-0.5c-17.9,0.3-35.4,3.5-52.1,10.2c-26.8,10.8-52.6,24-79,35.7c-0.4,0.2-0.9,0.5-0.3,1.5
		c0.5,0.1,1.3,0.2,2,0.2c17.8,0,35.6,0,53.4,0c2.3,0,4.1-0.6,6.1-1.8c10.6-6.5,21.3-12.9,32.1-19.3c14.7-8.7,30.4-14.4,47.6-14.5
		c24.6-0.3,49.2-0.2,73.9-0.1c11.8,0.1,23.1,2.9,33.6,8.1c16.8,8.3,33.7,16.5,50.4,25.1C526.8,323.7,532.2,323.9,538.5,322.7z
		 M471.1,323c-12.2-8-23.9-11.6-37.8-11.6c-21-0.1-42,0-62.9,0c-6.5,0-13,0.4-19.3,1.9c-7.6,1.8-14.9,4.5-22.6,9.7
		C376.6,323,423.2,323,471.1,323z"/>
	<path class="st1" d="M633.8,333.9c-16.9-3.1-34-5-51.1-6.8c-1.3-0.1-2.6-0.3-3.7-1.3c-10.1-8.9-20.7-17.1-30.3-26.5
		c12.1-1.3,24.1-2.8,35.4-7.8c7.3-3.3,13-7.9,15.3-16c2.7-9.8-0.2-16.2-9.5-20.1c-10.3-4.4-21.1-5.5-32.2-6.1
		c-20.8-1.1-41.6-0.4-62.4-1.1c-18.1-0.6-36.2-1.8-53.8-6.9c-4-1.2-7.9-2.7-11.6-4.4c-24.4-11.4-35-29.1-33.9-56.1
		c0.3-8.9,1.4-17.6,4.7-25.9c6.9-17.7,20.3-28.4,37.8-34.5c36.8-12.7,74.9-16.3,113.6-15c28.6,1,56.4,6.3,83.1,16.9
		c27.4,10.9,42.3,32.3,43,61.3c0.1,3.5-0.4,4.9-4.4,4.8c-23.1-0.2-46.3-0.1-69.4-0.1c-2.9,0-4.3-0.4-4.7-3.8
		c-1.4-10-8.3-15.5-16.9-19.3c-13.8-6.1-28.4-8.4-43.2-8.7c-15-0.3-29.9,1.3-44.3,5.8c-4.3,1.3-8.5,3-12.1,5.7
		c-11.5,8.4-10.5,23.2,2.2,29.7c8.3,4.2,17.4,5.3,26.5,6.4c21.9,2.8,43.9,0.6,65.8,1.2c19.3,0.5,38.6,1.4,57.3,6.7
		c7.3,2.1,13.9,5.3,20.3,9.4c15.1,9.7,22.3,23.7,23,41.3c0.8,19.6-2.8,37.7-16.6,52.8C653.9,324.2,644,329.2,633.8,333.9z"/>
	<path class="st1" d="M324,254.3c-30.1,5.7-56.6,20.4-84.1,32.8c-21.4,9.7-42.8,19.5-64.3,29.3c-4-7.4-8.1-14.8-12.1-22.2
		c0,0,0.1,0.1,0.1,0.1c-0.4-0.7-0.7-1.4-1.1-2.1c0,0,0.1,0.1,0.1,0.1c-11.6-22.3-23.1-44.5-34.7-66.8
		c-18.9-36.2-37.8-72.4-56.8-108.6c-0.6-1.1-1.1-2.3-1.6-3.5c1.2-1.5,2.6-0.9,3.8-0.9c25,0,49.9,0,74.9-0.1c3.4,0,4.9,1.2,6.4,4.1
		c25.5,49.4,51.1,98.8,76.7,148.2c0.8,1.5,1.5,2.9,2.5,4.6c1.9-1,2.3-2.8,3.1-4.3c26.9-49.1,53.8-98.2,80.6-147.4
		c2.2-4.1,4.7-5.3,9.2-5.3c23.6,0.2,47.2,0.1,70.9,0.1c0.4,2.2-1,3.6-1.8,5.1c-23,43.7-46,87.3-69,130.9
		C325.9,250.4,325,252.4,324,254.3z"/>
	<path class="st1" d="M773.8,380.4c-12.7-15.2-30.7-20.1-48.7-25.2c-9.7-2.8-19.6-4.9-29.1-8.5c0-76.2,0-152.4-0.1-228.6
		c0-4.3,0.7-5.9,5.5-5.8c22.8,0.3,45.6,0.2,68.4,0.1c3.1,0,4.2,0.6,4.2,4c-0.1,87.5-0.1,175-0.1,262.5
		C774,379.4,773.9,379.9,773.8,380.4z"/>
	<path class="st1" d="M592.8,503.8c14.9,8.8,31,12.3,48.2,10.8c-1.4,13.6,2.9,24.9,13.9,33.2c16.5,12.5,41.5,11.9,57.4-1.3
		c16.9-14,17-39.9,0.2-54.1c-6.1-5.2-13.3-8-21-9.7c2.2-4.4,4.4-8.9,6.5-13.3c0.8-1.6,1.9-2.4,3.9-2.4c24,0.1,48.1,0.2,72.1,0.3
		c0,15.6-0.4,31.3,0,46.9c0.9,31.8-14.3,54.2-42.2,66.8c-40.3,18.1-79.9,15.8-115.7-11.5C594.8,553.1,586.9,530.5,592.8,503.8z"/>
	<path class="st1" d="M358.6,467.2c16-0.4,31.9-0.4,47.9,0c-20.5,38.9-41.1,77.8-61.6,116.7c-1.5,2.9-3.1,4-6.4,4
		c-15-0.2-29.9-0.1-44.9-0.1c-2.3,0-3.9-0.2-5.2-2.6c-16-30.8-32.1-61.5-48.1-92.3c5.8-7.2,11.3-14.7,14.6-23.4
		c0.8-2.1,2.1-2.7,4.1-2.6c6.1,0.2,12.2,0.2,18.4,0.3c0.4,0.9,0.7,1.9,1.1,2.7c12.3,23.7,24.5,47.4,36.8,71.1
		c0.4,0.8,0.7,1.8,1.9,2.1c3.6-6.5,7.2-13,10.7-19.6C338.2,504.8,348.4,486,358.6,467.2z"/>
	<path class="st1" d="M181.6,514.8c14.8,0.8,28.9-2.2,42-9.1c14.8,27.1,29.5,54.2,44.8,82.2c-7.3,0-13.7,0-20.1,0
		c-8,0-16-0.1-24,0.1c-2.3,0-3.6-0.7-4.7-2.8c-3.1-6-6.5-12-9.7-18c-1.2-2.3-2.5-3.3-5.3-3.3c-24,0.1-47.9,0.1-71.9,0
		c-2.7,0-4.2,0.7-5.4,3.2c-3.1,6.1-6.5,12-9.7,18c-0.8,1.4-1.3,2.9-3.5,2.9c-14.7-0.1-29.5,0-45.2,0c19.6-36,38.9-71.2,58.1-106.4
		c2.6,3.1,5.3,6.3,7.9,9.4c6.6,7.9,15.2,13.1,24.1,18.1c-4.2,7.8-8.3,15.7-12.7,23.9c14.7,0,28.7,0,42.6,0c0.4,0,0.9-0.2,1.8-0.4
		C187.7,526.5,184.7,520.7,181.6,514.8z"/>
	<path class="st1" d="M421.3,467.3c1.7-0.1,3.3-0.3,5-0.3c44,0,88,0,132-0.1c4.1,0,6.5,1,7.7,5c1.5,5.1,5.3,9.2,7.5,14
		c-13.6,0-27.3,0.2-40.9,0c-4.1-0.1-5.3,0.9-5.3,5.1c0.2,30.3,0,60.6,0.2,90.9c0,4.3-0.8,5.7-5.4,5.5c-12.1-0.4-24.3-0.3-36.4,0
		c-3.8,0.1-4.7-1.1-4.7-4.8c0.1-30.5,0-60.9,0.2-91.4c0-4.6-1.3-5.5-5.6-5.4c-16.6,0.3-33.3,0-49.9,0.2c-3.4,0-4.7-0.7-4.4-4.3
		C421.5,477,421.3,472.1,421.3,467.3z"/>
	<path class="st2" d="M162.6,292.1c0.4,0.7,0.7,1.4,1.1,2.1C162.6,293.9,162.5,293.1,162.6,292.1z"/>
	<path class="st0" d="M655.2,442.8c0.1,13.2-10.4,23.9-23.5,24.2c-13.1,0.3-24.3-10.8-24.3-24c0-13.1,10.7-23.8,23.9-23.8
		C644.5,419.1,655.1,429.6,655.2,442.8z"/>
	<path class="st0" d="M212.2,443.1c-0.1,13.1-10.8,23.9-23.8,23.9c-13.1,0-23.9-10.7-24-23.8c-0.1-13.2,10.8-24.1,24.1-24
		C201.7,419.2,212.2,429.9,212.2,443.1z"/>
</g>
</svg>
